<svg width="676" height="440" viewBox="0 0 676 440" fill="none" xmlns="http://www.w3.org/2000/svg"><path d="m17.309 217.898 6.543-2.052 2.051 6.543-6.543 2.052zm6.543-2.052 6.543-2.051 2.051 6.543-6.543 2.051zm6.543-2.051 6.543-2.052 2.051 6.543-6.543 2.052zm6.543-2.052 6.543-2.051 2.051 6.543-6.543 2.051zm-11.035 10.646 6.543-2.051 2.052 6.543-6.543 2.051zm-6.543 2.052 6.543-2.052 2.052 6.543-6.543 2.052zm13.086-4.103 6.543-2.052 2.052 6.543-6.543 2.052zm6.543-2.052 6.543-2.051 2.052 6.543-6.543 2.051zm8.595 4.492 6.543-2.052 2.051 6.543-6.543 2.052zm4.491-8.595 6.543-2.051 2.052 6.543-6.543 2.051zm-6.543 2.052 6.543-2.052 2.052 6.543-6.543 2.052zm8.595 4.491 6.543-2.051 2.051 6.543-6.543 2.051zm-4.492 8.595 6.543-2.052 2.052 6.544-6.543 2.051zm6.543-2.052 6.543-2.051 2.052 6.543-6.543 2.052zm2.052 6.544 6.543-2.052 2.051 6.543-6.543 2.052zm-6.543 2.051 6.543-2.051 2.051 6.543-6.543 2.051zm-26.173 8.206 6.543-2.052 2.052 6.544-6.543 2.051zm-6.543 2.051 6.543-2.051 2.052 6.543-6.543 2.051zm-2.051-6.543 6.543-2.051 2.051 6.543-6.543 2.051zm6.543-2.051 6.543-2.052 2.051 6.543-6.543 2.052zm-2.052-6.543 6.544-2.052 2.051 6.543-6.543 2.052zm-6.543 2.051 6.544-2.051 2.051 6.543-6.543 2.051zm-2.051-6.543 6.543-2.051 2.052 6.543-6.544 2.051zm-2.052-6.543 6.543-2.051 2.052 6.543-6.543 2.051zm-2.051-6.543 6.543-2.051 2.051 6.543-6.542 2.051zm6.543-2.051 6.543-2.052 2.052 6.543-6.544 2.052zM.508 187.234l6.543-2.052 2.052 6.543-6.543 2.052zm6.543-2.052 6.543-2.051 2.052 6.543-6.543 2.051zm6.543-2.051 6.543-2.052 2.052 6.543-6.543 2.052zm6.543-2.052 6.543-2.051 2.052 6.543-6.543 2.051zm6.543-2.051 6.543-2.052 2.052 6.543-6.543 2.052zm6.543-2.052 6.544-2.051 2.051 6.543-6.543 2.051zm2.052 6.543 6.543-2.051 2.052 6.543-6.544 2.051zm-6.543 2.052 6.543-2.052 2.051 6.543-6.543 2.052zm-6.543 2.051 6.543-2.051 2.051 6.543-6.543 2.051zm-6.543 2.052 6.543-2.052 2.051 6.543-6.543 2.052zm-6.543 2.051 6.543-2.051 2.051 6.543-6.543 2.051zm-6.543 2.052 6.543-2.052 2.051 6.543-6.543 2.052zm2.051 6.543 6.543-2.052 2.052 6.543-6.543 2.052zm2.052 6.543 6.543-2.052 2.051 6.544-6.543 2.051zm6.543-2.052 6.543-2.051 2.051 6.543-6.543 2.052zm-2.052-6.543 6.543-2.051 2.052 6.543-6.543 2.051zm26.172-8.206 6.544-2.051 2.051 6.543-6.543 2.052zm6.544-2.051 6.543-2.051 2.051 6.543-6.543 2.051zm-2.052-6.543 6.543-2.052 2.052 6.544-6.543 2.051zm4.103 13.086 6.543-2.051 2.052 6.543-6.544 2.051zm-6.543 2.052 6.543-2.052 2.051 6.543-6.543 2.052zm2.051 6.543 6.543-2.052 2.052 6.543-6.543 2.052zm6.543-2.052 6.544-2.051 2.051 6.543-6.543 2.051zm-4.491 8.595 6.543-2.052 2.051 6.543-6.543 2.052zm33.816-46.534 6.543-2.052 2.052 6.543-6.543 2.052zm6.543-2.052 6.543-2.051 2.052 6.543-6.543 2.051zm2.052 6.543 6.543-2.051 2.051 6.543-6.543 2.051zm2.051 6.543 6.543-2.051 2.052 6.543-6.543 2.051zm2.052 6.543 6.543-2.051 2.051 6.543-6.543 2.052zm-6.543 2.052 6.543-2.052 2.051 6.544-6.543 2.051zm-2.052-6.543 6.543-2.052 2.052 6.543-6.543 2.052zm-2.051-6.543 6.543-2.052 2.051 6.543-6.543 2.052zm6.154 19.629 6.543-2.051 2.052 6.543-6.543 2.051zm2.052 6.543 6.543-2.051 2.051 6.543-6.543 2.051zm2.051 6.543 6.543-2.051 2.052 6.543-6.543 2.051zm4.492-8.594 6.543-2.052 2.051 6.543-6.543 2.052zm-2.052-6.543 6.543-2.052 2.052 6.543-6.543 2.052zm4.103 13.086 6.543-2.052 2.052 6.543-6.543 2.052zm2.052 6.543 6.543-2.052 2.051 6.543-6.543 2.052zm-4.492 8.594 6.543-2.051 2.052 6.543-6.544 2.051zm-2.052-6.543 6.544-2.051 2.051 6.543-6.543 2.051zm4.103 13.086 6.544-2.051 2.051 6.543-6.543 2.051zm6.544-2.051 6.543-2.052 2.051 6.543-6.543 2.052zm-2.052-6.543 6.543-2.052 2.052 6.543-6.543 2.052zm8.595 4.491 6.543-2.051 2.051 6.543-6.543 2.051zm6.543-2.051 6.543-2.052 2.051 6.544-6.543 2.051zm6.543-2.052 6.543-2.051 2.051 6.543-6.543 2.052zm-2.052-6.543 6.543-2.051 2.052 6.543-6.543 2.051zm-6.543 2.052 6.543-2.052 2.052 6.543-6.543 2.052zm-6.543 2.051 6.543-2.051 2.052 6.543-6.543 2.051zm-16.412-52.344 6.543-2.052 2.052 6.543-6.543 2.052zm6.543-2.052 6.544-2.051 2.051 6.543-6.543 2.051zm6.544-2.051 6.543-2.052 2.051 6.543-6.543 2.052zm6.543-2.052 6.543-2.051 2.051 6.543-6.543 2.051zm-4.492 8.595 6.543-2.052 2.052 6.543-6.544 2.052zm-6.543 2.051 6.543-2.051 2.051 6.543-6.543 2.051zm-6.543 2.052 6.543-2.052 2.051 6.543-6.543 2.052zm8.206 26.172 6.543-2.051 2.051 6.543-6.543 2.051zm4.491-8.594 6.543-2.052 2.052 6.543-6.543 2.052zm-6.543 2.051 6.543-2.051 2.052 6.543-6.543 2.051zm8.595 4.492 6.543-2.052 2.051 6.543-6.543 2.052zm4.88-30.276 6.543-2.051 2.052 6.543-6.543 2.051zm14.36 45.802 6.543-2.052 2.052 6.544-6.543 2.051zm2.052 6.543 6.543-2.051 2.051 6.543-6.543 2.051zm-16.801-30.664 6.543-2.051 2.052 6.543-6.543 2.051zm2.052 6.543 6.543-2.051 2.051 6.543-6.543 2.051zm52.263 12.359 6.543-2.051 2.051 6.543-6.543 2.051zm-2.052-6.543 6.543-2.051 2.052 6.543-6.543 2.051zm-2.051-6.543 6.543-2.051 2.051 6.543-6.543 2.051zm-2.052-6.543 6.543-2.052 2.052 6.544-6.543 2.051zm-2.051-6.543 6.543-2.052 2.051 6.543-6.543 2.052zm-2.052-6.543 6.543-2.052 2.052 6.543-6.543 2.052zm6.543-2.052 6.543-2.051 2.052 6.543-6.543 2.051zm-2.051-6.543 6.543-2.051 2.051 6.543-6.543 2.051zm-2.052-6.543 6.543-2.051 2.052 6.543-6.543 2.051zm-2.051-6.543 6.543-2.051 2.051 6.543-6.543 2.051zm-6.543 2.052 6.543-2.052 2.051 6.543-6.543 2.052zm-2.052-6.544 6.543-2.051 2.052 6.543-6.543 2.052zm4.103 13.087 6.543-2.052 2.052 6.543-6.543 2.052zm2.052 6.543 6.543-2.052 2.051 6.543-6.543 2.052zm.388-21.681 6.543-2.051 2.052 6.543-6.543 2.051zm10.258 32.715 6.543-2.051 2.051 6.543-6.543 2.051zm2.051 6.543 6.543-2.051 2.052 6.543-6.543 2.052zm2.052 6.544 6.543-2.052 2.051 6.543-6.543 2.052zm2.051 6.543 6.543-2.052 2.052 6.543-6.543 2.052zm2.052 6.543 6.543-2.052 2.051 6.543-6.543 2.052zm-7.818-47.853 6.543-2.052 2.052 6.543-6.543 2.052zm2.052 6.543 6.543-2.052 2.051 6.543-6.543 2.052zm6.543-2.052 6.543-2.051 2.051 6.543-6.543 2.051zm2.051 6.543 6.543-2.051 2.052 6.543-6.543 2.051zm6.543-2.051 6.544-2.052 2.051 6.543-6.543 2.052zm2.052 6.543 6.543-2.052 2.051 6.544-6.543 2.051zm4.492-8.595 6.543-2.051 2.051 6.543-6.543 2.051zm-2.052-6.543 6.543-2.051 2.052 6.543-6.543 2.051zm6.543-2.051 6.543-2.052 2.052 6.543-6.543 2.052zm-2.051-6.543 6.543-2.052 2.051 6.543-6.543 2.052zm2.44-15.138 6.543-2.051 2.051 6.543-6.543 2.051zm2.051 6.543 6.543-2.051 2.052 6.543-6.543 2.051zm2.052 6.543 6.543-2.051 2.051 6.543-6.543 2.051zm2.051 6.543 6.543-2.051 2.052 6.543-6.543 2.051zm2.052 6.543 6.543-2.051 2.051 6.543-6.543 2.052zm2.051 6.544 6.543-2.052 2.052 6.543-6.543 2.052zm2.052 6.543 6.543-2.052 2.051 6.543-6.543 2.052zm2.051 6.543 6.543-2.052 2.052 6.543-6.543 2.052zm2.052 6.543 6.543-2.052 2.051 6.543-6.543 2.052zm2.051 6.543 6.543-2.052 2.052 6.543-6.543 2.052zm6.543-2.052 6.543-2.051 2.052 6.543-6.543 2.051zm-2.051-6.543 6.543-2.051 2.051 6.543-6.543 2.051zm-2.052-6.543 6.543-2.051 2.052 6.543-6.543 2.051zm-2.051-6.543 6.543-2.051 2.051 6.543-6.543 2.051zm-2.052-6.543 6.543-2.051 2.052 6.543-6.543 2.051zm-2.051-6.543 6.543-2.052 2.051 6.544-6.543 2.051zm-2.052-6.543 6.543-2.052 2.052 6.543-6.543 2.052zm-2.051-6.543 6.543-2.052 2.051 6.543-6.543 2.052zm-2.052-6.543 6.543-2.052 2.052 6.543-6.543 2.052zm-2.051-6.543 6.543-2.052 2.051 6.543-6.543 2.052zm-37.207 18.852 6.543-2.052 2.051 6.543-6.543 2.052zm8.594 4.491 6.543-2.051 2.052 6.543-6.543 2.051zm8.595 4.492 6.543-2.052 2.052 6.543-6.544 2.052zm4.492-8.595 6.543-2.051 2.051 6.543-6.543 2.051zm4.491-8.594 6.543-2.052 2.052 6.543-6.543 2.052zm48.6-22.424 6.543-2.052 2.051 6.543-6.543 2.052zm6.543-2.052 6.543-2.051 2.051 6.543-6.543 2.051zm2.051 6.543 6.543-2.051 2.052 6.543-6.543 2.052zm2.052 6.544 6.543-2.052 2.051 6.543-6.543 2.052zm2.051 6.543 6.543-2.052 2.052 6.543-6.543 2.052zm-6.543 2.051 6.543-2.051 2.052 6.543-6.544 2.051zm-2.051-6.543 6.543-2.051 2.051 6.543-6.543 2.051zm-2.052-6.543 6.543-2.052 2.052 6.544-6.543 2.051zm6.154 19.629 6.544-2.051 2.051 6.543-6.543 2.051zm2.052 6.543 6.543-2.051 2.052 6.543-6.544 2.051zm2.051 6.543 6.544-2.051 2.051 6.543-6.543 2.051zm4.492-8.594 6.543-2.052 2.052 6.543-6.543 2.052zm-2.051-6.543 6.543-2.052 2.051 6.543-6.543 2.052zm4.103 13.086 6.543-2.052 2.051 6.543-6.543 2.052zm2.051 6.543 6.543-2.052 2.052 6.543-6.544 2.052zm-4.492 8.594 6.543-2.051 2.052 6.543-6.543 2.052zm-2.051-6.543 6.543-2.051 2.051 6.543-6.543 2.051zm4.103 13.087 6.543-2.052 2.051 6.543-6.543 2.052zm6.543-2.052 6.543-2.051 2.052 6.543-6.544 2.051zm-2.052-6.543 6.544-2.052 2.051 6.544-6.543 2.051zm8.595 4.492 6.543-2.052 2.052 6.543-6.543 2.052zm6.543-2.052 6.543-2.051 2.052 6.543-6.543 2.051zm6.543-2.051 6.543-2.052 2.052 6.543-6.543 2.052zm-2.051-6.543 6.543-2.052 2.051 6.543-6.543 2.052zm-6.543 2.051 6.543-2.051 2.051 6.543-6.543 2.051zm-6.543 2.051 6.543-2.051 2.051 6.543-6.543 2.052zm-16.412-52.344 6.543-2.052 2.051 6.543-6.543 2.052zm6.543-2.052 6.543-2.051 2.051 6.543-6.543 2.051zm6.543-2.051 6.543-2.052 2.051 6.544-6.543 2.051zm6.543-2.052 6.543-2.051 2.052 6.543-6.544 2.052zm-4.492 8.595 6.543-2.051 2.052 6.543-6.543 2.051zm-6.543 2.051 6.543-2.051 2.052 6.543-6.543 2.052zm-6.543 2.052 6.543-2.052 2.052 6.544-6.543 2.051zm8.206 26.172 6.543-2.051 2.052 6.543-6.543 2.051zm4.492-8.594 6.543-2.052 2.051 6.543-6.543 2.052zm-6.543 2.051 6.543-2.051 2.051 6.543-6.543 2.051zm8.594 4.492 6.543-2.052 2.052 6.543-6.543 2.052zm4.88-30.275 6.544-2.052 2.051 6.543-6.543 2.052zm14.361 45.801 6.543-2.051 2.051 6.543-6.543 2.051zm2.051 6.543 6.543-2.051 2.052 6.543-6.543 2.051zm-16.8-30.664 6.543-2.051 2.051 6.543-6.543 2.051zm2.051 6.543 6.543-2.051 2.052 6.543-6.543 2.051zm52.263 12.359 6.543-2.051 2.051 6.543-6.543 2.051zm-2.052-6.543 6.543-2.051 2.052 6.543-6.543 2.051zm-2.051-6.543 6.543-2.051 2.051 6.543-6.543 2.051zm-2.052-6.543 6.544-2.051 2.051 6.543-6.543 2.051zm-2.051-6.543 6.543-2.051 2.052 6.543-6.544 2.051zm-2.051-6.543 6.543-2.052 2.051 6.544-6.543 2.051zm6.543-2.052 6.543-2.051 2.051 6.543-6.543 2.052zm-2.052-6.543 6.543-2.051 2.052 6.543-6.543 2.051zm-2.051-6.543 6.543-2.051 2.051 6.543-6.543 2.051zm-2.052-6.543 6.543-2.051 2.052 6.543-6.543 2.051zm-6.543 2.052 6.543-2.052 2.052 6.543-6.543 2.052zm-2.051-6.543 6.543-2.052 2.051 6.543-6.543 2.052zm4.103 13.086 6.543-2.052 2.051 6.543-6.543 2.052zm2.051 6.543 6.543-2.052 2.052 6.543-6.543 2.052zm.389-21.68 6.543-2.052 2.051 6.543-6.543 2.051zm10.257 32.715 6.543-2.052 2.052 6.543-6.543 2.052zm2.052 6.543 6.543-2.052 2.051 6.543-6.543 2.052zm2.051 6.543 6.543-2.052 2.052 6.543-6.544 2.052zm2.051 6.543 6.544-2.052 2.051 6.543-6.543 2.052zm2.052 6.543 6.543-2.052 2.052 6.543-6.544 2.052zm-7.817-47.853 6.543-2.052 2.051 6.543-6.543 2.052zm2.051 6.543 6.543-2.052 2.052 6.544-6.543 2.051zm6.543-2.052 6.543-2.051 2.052 6.543-6.543 2.052zm2.052 6.544 6.543-2.052 2.051 6.543-6.543 2.052zm6.543-2.052 6.543-2.051 2.051 6.543-6.543 2.051zm2.051 6.543 6.543-2.051 2.052 6.543-6.543 2.051zm4.492-8.594 6.543-2.052 2.051 6.543-6.543 2.052zm-2.052-6.544 6.543-2.051 2.052 6.543-6.543 2.052zm6.543-2.051 6.544-2.052 2.051 6.544-6.543 2.051zm-2.051-6.543 6.543-2.052 2.052 6.543-6.544 2.052zm2.44-15.138 6.543-2.051 2.052 6.543-6.543 2.051zm2.052 6.543 6.543-2.051 2.051 6.543-6.543 2.051zm2.051 6.543 6.543-2.051 2.052 6.543-6.543 2.051zm2.052 6.543 6.543-2.051 2.051 6.543-6.543 2.052zm2.051 6.544 6.543-2.052 2.052 6.543-6.543 2.052zm2.052 6.543 6.543-2.052 2.051 6.543-6.543 2.052zm2.051 6.543 6.543-2.052 2.052 6.543-6.544 2.052zm2.051 6.543 6.544-2.052 2.051 6.543-6.543 2.052zm2.052 6.543 6.543-2.052 2.052 6.543-6.544 2.052zm2.051 6.543 6.544-2.052 2.051 6.544-6.543 2.051zm6.544-2.052 6.543-2.051 2.051 6.543-6.543 2.052zm-2.052-6.543 6.543-2.051 2.052 6.543-6.543 2.051zm-2.051-6.543 6.543-2.051 2.051 6.543-6.543 2.051zm-2.052-6.543 6.543-2.051 2.052 6.543-6.543 2.051zm-2.051-6.543 6.543-2.051 2.051 6.543-6.543 2.051zm-2.052-6.543 6.543-2.051 2.052 6.543-6.543 2.051zm-2.051-6.543 6.543-2.051 2.051 6.543-6.543 2.051zm-2.052-6.543 6.543-2.052 2.052 6.544-6.543 2.051zm-2.051-6.543 6.543-2.052 2.051 6.543-6.543 2.052zm-2.052-6.543 6.543-2.052 2.052 6.543-6.543 2.052zM322.802 93.37l6.543-2.052 2.052 6.543-6.543 2.052zm8.595 4.491 6.543-2.051 2.051 6.543-6.543 2.051zm8.594 4.492 6.543-2.052 2.052 6.544-6.543 2.051zm4.492-8.595 6.543-2.051 2.051 6.543-6.543 2.051zm4.492-8.594 6.543-2.052 2.051 6.543-6.543 2.052zm48.599-22.424 6.543-2.052 2.052 6.544-6.544 2.051zm6.543-2.052 6.543-2.051 2.052 6.543-6.543 2.052zm6.543-2.051 6.543-2.051 2.052 6.543-6.543 2.051zm6.543-2.051 6.543-2.052 2.052 6.543-6.543 2.052zm6.543-2.052 6.543-2.051 2.052 6.543-6.543 2.051zm6.543-2.051 6.543-2.052 2.052 6.543-6.543 2.052zm2.052 6.543 6.543-2.052 2.051 6.543-6.543 2.052zm-6.543 2.051 6.543-2.051 2.051 6.543-6.543 2.051zm-6.543 2.052 6.543-2.052 2.051 6.543-6.543 2.052zm-6.543 2.051 6.543-2.051 2.051 6.543-6.543 2.051zm-6.543 2.052 6.543-2.052 2.051 6.543-6.543 2.052zm-6.544 2.051 6.544-2.051 2.051 6.543-6.543 2.051zm39.259-12.309 6.543-2.051 2.051 6.543-6.543 2.051zm2.051 6.543 6.543-2.051 2.052 6.543-6.543 2.051zm2.052 6.543 6.543-2.051 2.051 6.543-6.543 2.051zm-6.543 2.052 6.543-2.052 2.051 6.543-6.543 2.052zm-2.052-6.543 6.543-2.052 2.052 6.543-6.543 2.052zm4.103 13.086 6.543-2.052 2.052 6.544-6.543 2.051zm-6.543 2.051 6.543-2.051 2.052 6.543-6.543 2.051zm-6.543 2.052 6.543-2.052 2.052 6.543-6.543 2.052zm-6.543 2.051 6.543-2.051 2.052 6.543-6.543 2.051zm-6.543 2.052 6.543-2.052 2.052 6.543-6.544 2.052zm-2.052-6.543 6.544-2.052 2.051 6.543-6.543 2.052zm-2.051-6.543 6.543-2.052 2.052 6.543-6.544 2.052zm-6.543 2.051 6.543-2.051 2.051 6.543-6.543 2.051zm2.051 6.543 6.543-2.051 2.052 6.543-6.543 2.051zm2.052 6.543 6.543-2.051 2.051 6.543-6.543 2.051zm2.051 6.543 6.543-2.051 2.052 6.543-6.543 2.051zm6.543-2.051 6.544-2.052 2.051 6.543-6.543 2.052zm6.544-2.052 6.543-2.051 2.051 6.543-6.543 2.052zm6.543-2.051 6.543-2.052 2.051 6.544-6.543 2.051zm6.543-2.052 6.543-2.051 2.051 6.543-6.543 2.052zm6.543-2.051 6.543-2.051 2.051 6.543-6.543 2.051zm6.543-2.051 6.543-2.052 2.051 6.543-6.543 2.052zm2.051 6.543 6.543-2.052 2.052 6.543-6.543 2.052zm-6.543 2.051 6.543-2.051 2.052 6.543-6.543 2.051zm4.103 13.086 6.543-2.051 2.052 6.543-6.543 2.051zm6.543-2.051 6.543-2.052 2.052 6.543-6.543 2.052zm-2.051-6.543 6.543-2.052 2.051 6.543-6.543 2.052zm-6.543 2.051 6.543-2.051 2.051 6.543-6.543 2.051zm4.103 13.086 6.543-2.051 2.051 6.543-6.543 2.051zm-6.543 2.052 6.543-2.052 2.051 6.543-6.543 2.052zm-6.544 2.051 6.544-2.051 2.051 6.543-6.543 2.051zm-6.543 2.052 6.543-2.052 2.052 6.543-6.543 2.052zm-6.543 2.051 6.543-2.051 2.052 6.543-6.543 2.051zm-6.543 2.052 6.543-2.052 2.052 6.543-6.543 2.052zm-2.051-6.543 6.543-2.052 2.051 6.543-6.543 2.052zm-2.052-6.543 6.543-2.052 2.052 6.543-6.543 2.052zm-2.051-6.544 6.543-2.051 2.051 6.543-6.543 2.052zm6.543-2.051 6.543-2.052 2.051 6.544-6.543 2.051zm2.051 6.543 6.543-2.051 2.052 6.543-6.543 2.051zm2.052 6.543 6.543-2.051 2.051 6.543-6.543 2.051zm6.543-2.051 6.543-2.052 2.051 6.543-6.543 2.052zm6.543-2.052 6.543-2.051 2.052 6.543-6.544 2.051zm6.543-2.051 6.543-2.052 2.052 6.543-6.543 2.052zm34.205-68.215 6.543-2.052 2.052 6.544-6.543 2.051zm6.543-2.052 6.543-2.051 2.052 6.543-6.543 2.052zm2.052 6.544 6.543-2.052 2.051 6.543-6.543 2.052zm2.051 6.543 6.543-2.052 2.052 6.543-6.543 2.052zm2.052 6.543 6.543-2.052 2.051 6.543-6.543 2.052zm-6.543 2.051 6.543-2.051 2.051 6.543-6.543 2.051zm-2.052-6.543 6.543-2.051 2.052 6.543-6.543 2.051zm-2.051-6.543 6.543-2.051 2.051 6.543-6.543 2.051zm6.154 19.63 6.543-2.052 2.052 6.543-6.544 2.051zm2.051 6.542 6.544-2.051 2.051 6.543-6.543 2.051zm2.052 6.543 6.543-2.051 2.052 6.543-6.544 2.052zm4.492-8.594 6.543-2.052 2.051 6.544-6.543 2.05zm-2.052-6.543 6.543-2.052 2.052 6.543-6.543 2.052zm4.103 13.086 6.543-2.051 2.052 6.543-6.543 2.051zm2.052 6.543 6.543-2.052 2.051 6.544-6.543 2.051zm-4.492 8.595 6.543-2.052 2.051 6.543-6.543 2.052zm-2.052-6.543 6.544-2.052 2.051 6.543-6.543 2.052zm4.103 13.086 6.543-2.052 2.052 6.543-6.543 2.052zm6.543-2.052 6.544-2.051 2.051 6.543-6.543 2.051zm-2.051-6.543 6.543-2.051 2.052 6.543-6.544 2.051zm8.595 4.492 6.543-2.052 2.051 6.543-6.543 2.052zm6.543-2.052 6.543-2.051 2.051 6.543-6.543 2.051zm6.543-2.051 6.543-2.052 2.051 6.543-6.543 2.052zm-2.052-6.543 6.543-2.052 2.052 6.543-6.543 2.052zm-6.543 2.051 6.543-2.051 2.052 6.543-6.543 2.051zm-6.543 2.052 6.543-2.052 2.052 6.543-6.543 2.052zM487.449 34.56l6.543-2.051 2.052 6.543-6.543 2.051zm6.543-2.051 6.543-2.052L502.587 37l-6.543 2.052zm6.543-2.052 6.543-2.051 2.052 6.543L502.587 37zm6.543-2.051 6.544-2.052 2.051 6.543-6.543 2.052zM502.587 37l6.543-2.051 2.051 6.543-6.543 2.051zm-6.543 2.052L502.587 37l2.051 6.543-6.543 2.052zm-6.543 2.051 6.543-2.051 2.051 6.543-6.543 2.051zm8.206 26.172 6.543-2.051 2.051 6.543-6.543 2.052zm4.491-8.594 6.543-2.052 2.052 6.543-6.543 2.052zm-6.543 2.051 6.543-2.051 2.052 6.543-6.543 2.051zm8.595 4.492 6.543-2.052 2.051 6.543-6.543 2.052zm4.88-30.275 6.543-2.052 2.052 6.543-6.544 2.052zm14.36 45.801 6.543-2.051 2.052 6.543-6.543 2.051zm2.052 6.543 6.543-2.051 2.051 6.543-6.543 2.051zM508.741 56.63l6.543-2.051 2.052 6.543-6.543 2.051zm2.052 6.543 6.543-2.051 2.051 6.543-6.543 2.051zm50.6-15.864 6.543-2.052 2.051 6.543-6.543 2.052zm6.543-2.052 6.543-2.051 2.051 6.543-6.543 2.051zm6.543-2.051 6.543-2.052 2.051 6.543-6.543 2.052zm6.543-2.052 6.543-2.051 2.051 6.543-6.543 2.051zM569.987 51.8l6.543-2.051 2.052 6.543-6.543 2.051zm-6.543 2.052 6.543-2.052 2.052 6.543-6.543 2.052zm13.086-4.103 6.543-2.052 2.052 6.543-6.543 2.052zm6.543-2.052 6.543-2.051 2.052 6.543-6.543 2.051zm8.595 4.492 6.543-2.052 2.051 6.544-6.543 2.051zm4.491-8.595 6.544-2.051 2.051 6.543-6.543 2.051zm-6.543 2.052 6.543-2.052 2.052 6.543-6.543 2.052zm8.595 4.491 6.543-2.051 2.051 6.543-6.543 2.052zm-4.492 8.595 6.543-2.051 2.052 6.543-6.543 2.051zm6.543-2.051 6.543-2.052 2.052 6.543-6.543 2.052zm2.052 6.543 6.543-2.052 2.051 6.543-6.543 2.052zm-6.543 2.051 6.543-2.051 2.051 6.543-6.543 2.051zm-26.173 8.206 6.544-2.051 2.051 6.543-6.543 2.051zm-6.543 2.051 6.543-2.051 2.052 6.543-6.543 2.052zm-2.051-6.543 6.543-2.051 2.051 6.543-6.543 2.051zm6.543-2.051 6.543-2.052 2.052 6.544-6.544 2.051zm-2.051-6.543 6.543-2.052 2.051 6.543-6.543 2.052zm-6.544 2.051 6.544-2.051 2.051 6.543-6.543 2.051zm-2.051-6.543 6.543-2.051 2.052 6.543-6.544 2.051zm-2.051-6.543 6.543-2.051 2.051 6.543-6.543 2.051zm-2.052-6.543 6.543-2.051 2.052 6.543-6.543 2.051zm6.543-2.051 6.543-2.052 2.052 6.543-6.543 2.052zm-14.749-24.121 6.543-2.052 2.052 6.543-6.543 2.052zm6.543-2.052 6.543-2.051 2.052 6.543-6.543 2.051zm6.543-2.051 6.543-2.052 2.052 6.543-6.543 2.052zm6.543-2.052 6.543-2.051 2.052 6.543-6.543 2.051zm6.543-2.051 6.544-2.052 2.051 6.543-6.543 2.052zm6.544-2.052 6.543-2.051 2.051 6.543-6.543 2.051zm2.051 6.543 6.543-2.051 2.052 6.543-6.544 2.052zm-6.543 2.052 6.543-2.052 2.051 6.544-6.543 2.051zm-6.543 2.051 6.543-2.051 2.051 6.543-6.543 2.052zm-6.543 2.052 6.543-2.052 2.051 6.543-6.543 2.052zm-6.543 2.051 6.543-2.051 2.051 6.543-6.543 2.051zm-6.543 2.052 6.543-2.052 2.051 6.543-6.543 2.052zm2.051 6.543 6.543-2.052 2.052 6.543-6.543 2.052zm2.052 6.543 6.543-2.052 2.051 6.544-6.543 2.051zm6.543-2.052 6.543-2.051 2.051 6.543-6.543 2.052zm-2.052-6.543 6.543-2.051 2.052 6.543-6.543 2.051zm26.172-8.205 6.544-2.052 2.051 6.543-6.543 2.052zm6.544-2.052 6.543-2.051 2.051 6.543-6.543 2.051zm-2.052-6.543 6.543-2.052 2.052 6.544-6.543 2.051zm4.103 13.086 6.543-2.051 2.052 6.543-6.544 2.051zm-6.543 2.052 6.543-2.052 2.051 6.543-6.543 2.052zm2.051 6.543 6.543-2.052 2.052 6.543-6.543 2.052zm6.543-2.052 6.544-2.051L600.651 35l-6.543 2.051zm-4.491 8.595 6.543-2.052 2.051 6.543-6.543 2.052zm-404.16 193.49 6.543-2.051 2.052 6.543-6.543 2.051zm6.543-2.051 6.544-2.052 2.051 6.543-6.543 2.052zm2.052 6.543 6.543-2.052 2.051 6.543-6.543 2.052zm2.051 6.543 6.543-2.052 2.052 6.543-6.543 2.052zm-6.543 2.051 6.543-2.051 2.052 6.543-6.543 2.051zm-2.051-6.543 6.543-2.051 2.051 6.543-6.543 2.051zm4.103 13.086 6.543-2.051 2.051 6.543-6.543 2.051zm2.051 6.543 6.543-2.051 2.052 6.543-6.543 2.052zm6.543-2.051 6.543-2.052 2.052 6.544-6.543 2.051zm-2.051-6.543 6.543-2.052 2.051 6.543-6.543 2.052zm4.103 13.086 6.543-2.051 2.051 6.543-6.543 2.051zm6.543-2.051 6.543-2.052 2.051 6.543-6.543 2.052zm-2.052-6.544 6.544-2.051 2.051 6.543-6.543 2.052zm4.103 13.087 6.543-2.052 2.052 6.543-6.543 2.052zm6.543-2.052 6.544-2.051 2.051 6.543-6.543 2.051zm-2.051-6.543 6.543-2.051 2.052 6.543-6.544 2.051zm6.543-2.051 6.543-2.052 2.052 6.543-6.543 2.052zm2.052 6.543 6.543-2.052 2.051 6.543-6.543 2.052zm6.543-2.052 6.543-2.051 2.051 6.543-6.543 2.051zm-2.052-6.543 6.543-2.051 2.052 6.543-6.543 2.051zm-2.051-6.543 6.543-2.051 2.051 6.543-6.543 2.051zm6.543-2.051 6.543-2.052 2.051 6.543-6.543 2.052zm2.051 6.543 6.543-2.052 2.052 6.543-6.543 2.052zm-4.103-13.087 6.543-2.051 2.052 6.543-6.543 2.052zm-2.051-6.543 6.543-2.051 2.051 6.543-6.543 2.051zm-2.052-6.543 6.543-2.051 2.052 6.543-6.543 2.051zm-2.051-6.543 6.543-2.051 2.051 6.543-6.543 2.051zm6.543-2.051 6.543-2.052 2.051 6.543-6.543 2.052zm2.051 6.543 6.543-2.052 2.052 6.543-6.543 2.052zm2.052 6.543 6.543-2.052 2.051 6.544-6.543 2.051zm2.051 6.543 6.543-2.051 2.052 6.543-6.543 2.051zm2.052 6.543 6.543-2.051 2.051 6.543-6.543 2.051zm-20.018 27.835 6.543-2.051 2.051 6.543-6.543 2.051zm2.051 6.543 6.543-2.051 2.052 6.543-6.543 2.051zm2.052 6.543 6.543-2.051 2.051 6.543-6.543 2.051zm6.543-2.051 6.543-2.052 2.052 6.544-6.544 2.051zm-2.052-6.543 6.544-2.052 2.051 6.543-6.543 2.052zm-2.051-6.543 6.543-2.052 2.052 6.543-6.544 2.052zm55.903-67.832 6.543-2.051 2.051 6.543-6.543 2.051zm-6.543 2.052 6.543-2.052 2.051 6.543-6.543 2.052zm2.051 6.543 6.543-2.052 2.052 6.543-6.543 2.052zm6.543-2.052 6.543-2.051 2.052 6.543-6.543 2.051zm6.543-2.051 6.543-2.052 2.052 6.544-6.543 2.051zm-2.051-6.543 6.543-2.052 2.051 6.543-6.543 2.052zm6.543-2.052 6.543-2.051 2.051 6.543-6.543 2.051zm6.543-2.051 6.543-2.052 2.052 6.544-6.544 2.051zm2.051 6.543 6.544-2.051 2.051 6.543-6.543 2.051zm-6.543 2.051 6.543-2.051 2.052 6.543-6.543 2.052zm2.052 6.544 6.543-2.052 2.051 6.543-6.543 2.052zm6.543-2.052 6.543-2.051 2.051 6.543-6.543 2.051zm4.492-8.594 6.543-2.052 2.051 6.543-6.543 2.052zm2.051 6.543 6.543-2.052 2.052 6.543-6.544 2.052zm2.051 6.543 6.544-2.052 2.051 6.543-6.543 2.052zm2.052 6.543 6.543-2.052 2.052 6.543-6.544 2.052zm2.051 6.543 6.544-2.052 2.051 6.543-6.543 2.052zm2.052 6.543 6.543-2.052 2.051 6.543-6.543 2.052zm2.051 6.543 6.543-2.052 2.052 6.544-6.543 2.051zm2.052 6.543 6.543-2.051 2.051 6.543-6.543 2.051zm-6.543 2.052 6.543-2.052 2.051 6.543-6.543 2.052zm-2.052-6.544 6.543-2.051 2.052 6.543-6.543 2.052zm-2.051-6.543 6.543-2.051 2.051 6.543-6.543 2.051zm-2.052-6.543 6.543-2.051 2.052 6.543-6.543 2.051zm-2.051-6.543 6.543-2.051 2.051 6.543-6.543 2.051zm-2.052-6.543 6.543-2.051 2.052 6.543-6.543 2.051zm1.663 28.224 6.543-2.052 2.052 6.544-6.543 2.051zm2.052 6.543 6.543-2.051 2.051 6.543-6.543 2.051zm8.594 4.492 6.543-2.052 2.052 6.543-6.543 2.052zm-6.543 2.051 6.543-2.051 2.052 6.543-6.543 2.051zm-6.543 2.052 6.543-2.052 2.052 6.543-6.543 2.052zm-2.051-6.544 6.543-2.051 2.051 6.543-6.543 2.052zm-4.492 8.595 6.543-2.051 2.052 6.543-6.543 2.051zm-6.543 2.052 6.543-2.052 2.052 6.543-6.544 2.052zm-2.051-6.544 6.543-2.051 2.051 6.543-6.543 2.052zm6.543-2.051 6.543-2.052 2.051 6.544-6.543 2.051zm-2.052-6.543 6.543-2.052 2.052 6.543-6.543 2.052zm-6.543 2.051 6.543-2.051 2.052 6.543-6.543 2.051zm-4.492 8.595 6.544-2.052 2.051 6.544-6.543 2.051zm-2.051-6.543 6.543-2.052 2.052 6.543-6.544 2.052zm-2.052-6.543 6.544-2.052 2.051 6.543-6.543 2.052zm-2.051-6.543 6.543-2.052 2.052 6.543-6.544 2.052zm-2.051-6.543 6.543-2.052 2.051 6.543-6.543 2.052zm-2.052-6.543 6.543-2.052 2.052 6.543-6.543 2.052zm-2.051-6.544 6.543-2.051 2.051 6.543-6.543 2.052zm6.543-2.051 6.543-2.052 2.051 6.544-6.543 2.051zm-8.595-4.492 6.543-2.051 2.052 6.543-6.543 2.051zm15.138 2.44 6.543-2.051 2.051 6.543-6.543 2.052zm-4.492 8.595 6.543-2.051 2.052 6.543-6.543 2.051zm2.052 6.543 6.543-2.051 2.051 6.543-6.543 2.051zm2.051 6.543 6.543-2.051 2.052 6.543-6.543 2.051zm2.052 6.543 6.543-2.051 2.051 6.543-6.543 2.051zm66.531-56.791 6.543-2.052 2.052 6.543-6.543 2.052zm26.173-8.206 6.543-2.052 2.051 6.544-6.543 2.051zm2.051 6.543 6.543-2.051 2.052 6.543-6.543 2.051zm4.492-8.595 6.543-2.051 2.051 6.543-6.543 2.052zm2.051 6.544 6.543-2.052 2.052 6.543-6.543 2.052zm2.052 6.543 6.543-2.052 2.051 6.543-6.543 2.052zm2.051 6.543 6.543-2.052 2.052 6.543-6.543 2.052zm2.052 6.543 6.543-2.052 2.051 6.543-6.543 2.052zm2.051 6.543 6.543-2.052 2.052 6.543-6.543 2.052zm2.052 6.543 6.543-2.052 2.051 6.544-6.543 2.051zm2.051 6.543 6.543-2.051 2.052 6.543-6.543 2.051zm-6.543 2.051 6.543-2.051 2.052 6.543-6.544 2.052zm-2.052-6.543 6.544-2.051 2.051 6.543-6.543 2.051zm-2.051-6.543 6.543-2.051 2.052 6.543-6.544 2.051zm-2.051-6.543 6.543-2.051 2.051 6.543-6.543 2.051zm-2.052-6.543 6.543-2.051 2.052 6.543-6.543 2.051zm-2.051-6.543 6.543-2.051 2.051 6.543-6.543 2.051zm1.662 28.224 6.543-2.052 2.052 6.543-6.543 2.052zm2.052 6.543 6.543-2.052 2.051 6.544-6.543 2.051zm8.594 4.492 6.544-2.052 2.051 6.543-6.543 2.052zm-6.543 2.051 6.543-2.051 2.052 6.543-6.543 2.051zm-6.543 2.052 6.543-2.052 2.052 6.543-6.543 2.052zm-2.051-6.544 6.543-2.051 2.051 6.543-6.543 2.052zm-4.492 8.595 6.543-2.051 2.052 6.543-6.543 2.051zm-6.543 2.051 6.543-2.051 2.052 6.543-6.543 2.052zm-2.051-6.543 6.543-2.051 2.051 6.543-6.543 2.051zm6.543-2.051 6.543-2.052 2.051 6.544-6.543 2.051zm-2.052-6.543 6.543-2.052 2.052 6.543-6.543 2.052zm-6.543 2.051 6.543-2.051 2.052 6.543-6.543 2.051zm-4.491 8.595 6.543-2.052 2.051 6.543-6.543 2.052zm-2.052-6.543 6.543-2.052 2.052 6.543-6.543 2.052zm-2.051-6.543 6.543-2.052 2.051 6.543-6.543 2.052zm-2.052-6.543 6.543-2.052 2.052 6.543-6.543 2.052zm-2.051-6.543 6.543-2.052 2.051 6.543-6.543 2.052zm-2.052-6.543 6.543-2.052 2.052 6.543-6.543 2.052zm-2.051-6.544 6.543-2.051 2.051 6.543-6.543 2.052zm6.543-2.051 6.543-2.052 2.051 6.544-6.543 2.051zm-8.595-4.492 6.543-2.051 2.052 6.543-6.543 2.051zm10.646 11.035 6.543-2.051 2.052 6.543-6.543 2.051zm2.052 6.543 6.543-2.051 2.051 6.543-6.543 2.051zm2.051 6.543 6.543-2.051 2.052 6.543-6.543 2.051zm2.052 6.543 6.543-2.051 2.051 6.543-6.543 2.051zm-18.852-37.207 6.543-2.051 2.051 6.543-6.543 2.051zm6.543-2.051 6.543-2.052 2.051 6.543-6.543 2.052zm26.172-8.206 6.543-2.052 2.052 6.543-6.543 2.052zm6.543-2.052 6.543-2.051 2.052 6.543-6.543 2.051zm54.331 18.897 6.543-2.051 2.052 6.543-6.543 2.051zm6.543-2.051 6.544-2.052 2.051 6.543-6.543 2.052zm6.544-2.052 6.543-2.051 2.051 6.543-6.543 2.051zm6.543-2.051 6.543-2.052 2.051 6.543-6.543 2.052zm-11.035 10.646 6.543-2.052 2.051 6.543-6.543 2.052zm-6.543 2.051 6.543-2.051 2.051 6.543-6.543 2.051zm13.086-4.103 6.543-2.051 2.052 6.543-6.544 2.051zm6.543-2.051 6.543-2.052 2.052 6.543-6.543 2.052zm8.595 4.491 6.543-2.051 2.051 6.543-6.543 2.051zm4.491-8.594 6.543-2.052 2.052 6.543-6.543 2.052zm-6.543 2.051 6.543-2.051 2.052 6.543-6.543 2.051zm8.595 4.492 6.543-2.052 2.051 6.544-6.543 2.051zm-4.492 8.594 6.543-2.051 2.052 6.543-6.543 2.052zm6.543-2.051 6.543-2.051 2.052 6.543-6.543 2.051zm2.052 6.543 6.543-2.051 2.051 6.543-6.543 2.051zm-6.543 2.052 6.543-2.052 2.051 6.543-6.543 2.052zm-26.173 8.205 6.543-2.051 2.052 6.543-6.543 2.052zm-6.543 2.052 6.543-2.052 2.052 6.544-6.543 2.051zm-2.051-6.543 6.543-2.052 2.051 6.543-6.543 2.052zm6.543-2.052 6.543-2.051 2.051 6.543-6.543 2.051zm-2.052-6.543 6.543-2.051 2.052 6.543-6.543 2.051zm-6.543 2.052 6.543-2.052 2.052 6.543-6.543 2.052zm-2.051-6.543 6.543-2.052 2.051 6.543-6.543 2.052zm-2.052-6.543 6.543-2.052 2.052 6.543-6.543 2.052zm-2.051-6.543 6.543-2.052 2.051 6.543-6.543 2.052zm6.543-2.052 6.543-2.051 2.051 6.543-6.543 2.051zm-14.749-24.121 6.543-2.051 2.051 6.543-6.543 2.051zm6.543-2.051 6.543-2.052 2.052 6.543-6.544 2.052zm6.543-2.052 6.543-2.051 2.052 6.543-6.543 2.051zm6.543-2.051 6.543-2.052 2.052 6.543-6.543 2.052zm6.543-2.052 6.543-2.051 2.052 6.543-6.543 2.051zm6.543-2.051 6.543-2.052 2.052 6.543-6.543 2.052zm2.052 6.543 6.543-2.052 2.051 6.544-6.543 2.051zm-6.543 2.051 6.543-2.051 2.051 6.543-6.543 2.052zm-6.543 2.052 6.543-2.052 2.051 6.544-6.543 2.051zm-6.543 2.051 6.543-2.051 2.051 6.543-6.543 2.051zm-6.544 2.052 6.544-2.052 2.051 6.543-6.543 2.052zm-6.543 2.051 6.543-2.051 2.052 6.543-6.543 2.051zm2.052 6.543 6.543-2.051 2.051 6.543-6.543 2.051zm2.051 6.543 6.543-2.051 2.052 6.543-6.543 2.052zm6.543-2.051 6.543-2.051 2.052 6.543-6.543 2.051zm-2.051-6.543 6.543-2.052 2.051 6.544-6.543 2.051zm26.172-8.206 6.543-2.051 2.052 6.543-6.543 2.051zm6.543-2.051 6.543-2.052 2.052 6.543-6.543 2.052zm-2.051-6.544 6.543-2.051 2.051 6.543-6.543 2.052zm4.103 13.087 6.543-2.052 2.051 6.543-6.543 2.052zm-6.543 2.051 6.543-2.051 2.051 6.543-6.543 2.051zm2.051 6.543 6.543-2.051 2.052 6.543-6.543 2.051zm6.543-2.051 6.543-2.052 2.052 6.543-6.543 2.052zm-4.491 8.594 6.543-2.051 2.051 6.543-6.543 2.051zM104.041 360.181l6.543-2.052 2.052 6.543-6.543 2.052zm6.543-2.052 6.543-2.051 2.052 6.543-6.543 2.051zm6.543-2.051 6.543-2.052 2.052 6.543-6.543 2.052zm6.543-2.052 6.543-2.051 2.052 6.543-6.543 2.051zm6.543-2.051 6.544-2.052 2.051 6.543-6.543 2.052zm6.544-2.052 6.543-2.051 2.051 6.543-6.543 2.051zm2.051 6.543 6.543-2.051 2.052 6.543-6.543 2.051zm-6.543 2.052 6.543-2.052 2.052 6.543-6.544 2.052zm-6.543 2.051 6.543-2.051 2.051 6.543-6.543 2.051zm-6.543 2.052 6.543-2.052 2.051 6.543-6.543 2.052zm-6.543 2.051 6.543-2.051 2.051 6.543-6.543 2.051zm-6.543 2.052 6.543-2.052 2.051 6.543-6.543 2.052zm39.258-12.309 6.543-2.052 2.052 6.543-6.543 2.052zm2.052 6.543 6.543-2.052 2.051 6.543-6.543 2.052zm2.051 6.543 6.543-2.052 2.052 6.543-6.543 2.052zm-6.543 2.051 6.543-2.051 2.052 6.543-6.544 2.051zm-2.051-6.543 6.543-2.051 2.051 6.543-6.543 2.051zm4.102 13.086 6.544-2.051 2.051 6.543-6.543 2.051zm-6.543 2.052 6.543-2.052 2.052 6.543-6.543 2.052zm-6.543 2.051 6.543-2.051 2.052 6.543-6.543 2.051zm-6.543 2.052 6.543-2.052 2.052 6.543-6.543 2.052zm-6.543 2.051 6.543-2.051 2.052 6.543-6.543 2.051zm-2.051-6.543 6.543-2.051 2.051 6.543-6.543 2.051zm-2.052-6.543 6.543-2.051 2.052 6.543-6.543 2.051zm-6.543 2.052 6.543-2.052 2.052 6.543-6.543 2.052zm2.052 6.543 6.543-2.052 2.051 6.543-6.543 2.052zm2.051 6.543 6.543-2.052 2.052 6.543-6.543 2.052zm2.052 6.543 6.543-2.052 2.051 6.543-6.543 2.052zm6.543-2.052 6.543-2.051 2.051 6.543-6.543 2.051zm6.543-2.051 6.543-2.052 2.051 6.544-6.543 2.051zm6.543-2.052 6.543-2.051 2.051 6.543-6.543 2.052zm6.543-2.051 6.543-2.052 2.051 6.544-6.543 2.051zm6.543-2.052 6.543-2.051 2.052 6.543-6.544 2.052zm6.543-2.051 6.543-2.051 2.052 6.543-6.543 2.051zm2.052 6.543 6.543-2.051 2.051 6.543-6.543 2.051zm-6.544 2.052 6.544-2.052 2.051 6.543-6.543 2.052zm4.103 13.086 6.543-2.052 2.052 6.543-6.543 2.052zm6.543-2.052 6.544-2.051 2.051 6.543-6.543 2.051zm-2.051-6.543 6.543-2.051 2.052 6.543-6.544 2.051zm-6.543 2.052 6.543-2.052 2.051 6.543-6.543 2.052zm4.103 13.086 6.543-2.052 2.051 6.543-6.543 2.052zm-6.543 2.051 6.543-2.051 2.051 6.543-6.543 2.051zm-6.543 2.052 6.543-2.052 2.051 6.543-6.543 2.052zm-6.543 2.051 6.543-2.051 2.051 6.543-6.543 2.051zm-6.543 2.052 6.543-2.052 2.051 6.543-6.543 2.052zm-6.544 2.051 6.544-2.051 2.051 6.543-6.543 2.051zm-2.051-6.543 6.543-2.051 2.052 6.543-6.544 2.051zm-2.051-6.543 6.543-2.051 2.051 6.543-6.543 2.051zm-2.052-6.543 6.543-2.052 2.052 6.544-6.543 2.051zm6.543-2.052 6.543-2.051 2.052 6.543-6.543 2.052zm2.052 6.544 6.543-2.052 2.051 6.543-6.543 2.052zm2.051 6.543 6.543-2.052 2.052 6.543-6.543 2.052zm6.543-2.052 6.543-2.051 2.052 6.543-6.543 2.051zm6.543-2.051 6.543-2.052 2.052 6.543-6.543 2.052zm6.543-2.052 6.543-2.051 2.052 6.543-6.543 2.051zm51.006-37.551 6.543-2.051 2.051 6.543-6.543 2.051zm6.543-2.051 6.543-2.052 2.051 6.544-6.543 2.051zm6.543-2.052 6.543-2.051 2.051 6.543-6.543 2.052zm6.543-2.051 6.543-2.052 2.052 6.544-6.544 2.051zm-11.035 10.646 6.543-2.051 2.052 6.543-6.543 2.051zm-6.543 2.051 6.543-2.051 2.052 6.543-6.543 2.052zm13.086-4.102 6.543-2.052 2.052 6.543-6.543 2.052zm6.543-2.052 6.544-2.051 2.051 6.543-6.543 2.051zm8.595 4.492 6.543-2.052 2.052 6.543-6.543 2.052zm4.492-8.595 6.543-2.051 2.051 6.543-6.543 2.051zm-6.543 2.052 6.543-2.052 2.051 6.543-6.543 2.052zm8.594 4.491 6.543-2.051 2.052 6.543-6.543 2.051zm-4.491 8.595 6.543-2.052 2.051 6.543-6.543 2.052zm6.543-2.052 6.543-2.051 2.051 6.543-6.543 2.051zm2.051 6.543 6.543-2.051 2.052 6.543-6.543 2.051zm-6.543 2.052 6.543-2.052 2.052 6.543-6.544 2.052zm-26.172 8.206 6.543-2.052 2.051 6.543-6.543 2.052zm-6.543 2.051 6.543-2.051 2.051 6.543-6.543 2.051zm-2.052-6.543 6.543-2.051 2.052 6.543-6.543 2.051zm6.543-2.051 6.543-2.052 2.052 6.543-6.543 2.052zm-2.051-6.543 6.543-2.052 2.051 6.543-6.543 2.052zm-6.543 2.051 6.543-2.051 2.051 6.543-6.543 2.051zm-2.052-6.543 6.543-2.052 2.052 6.544-6.543 2.051zm-2.051-6.543 6.543-2.052 2.051 6.543-6.543 2.052zm-2.052-6.543 6.543-2.052 2.052 6.543-6.543 2.052zm6.543-2.052 6.543-2.051 2.052 6.543-6.543 2.051zm-14.749-24.121 6.543-2.051 2.052 6.543-6.543 2.052zm6.543-2.051 6.543-2.051 2.052 6.543-6.543 2.051zm6.543-2.051 6.544-2.052 2.051 6.543-6.543 2.052zm6.544-2.052 6.543-2.051 2.051 6.543-6.543 2.051zm6.543-2.051 6.543-2.052 2.051 6.543-6.543 2.052zm6.543-2.052 6.543-2.051 2.051 6.543-6.543 2.051zm2.051 6.543 6.543-2.051 2.052 6.543-6.543 2.051zm-6.543 2.052 6.543-2.052 2.052 6.543-6.543 2.052zm-6.543 2.051 6.543-2.051 2.052 6.543-6.544 2.051zm-6.543 2.052 6.543-2.052 2.051 6.543-6.543 2.052zm-6.543 2.051 6.543-2.051 2.051 6.543-6.543 2.051zm-6.543 2.052 6.543-2.052 2.051 6.543-6.543 2.052zm2.051 6.543 6.543-2.052 2.052 6.543-6.543 2.052zm2.052 6.543 6.543-2.052 2.051 6.543-6.543 2.052zm6.543-2.052 6.543-2.051 2.051 6.543-6.543 2.051zm-2.052-6.543 6.543-2.051 2.052 6.543-6.543 2.051zm26.173-8.206 6.543-2.051 2.051 6.543-6.543 2.051zm6.543-2.051 6.543-2.052 2.051 6.543-6.543 2.052zm-2.052-6.543 6.543-2.052 2.052 6.543-6.543 2.052zm4.103 13.086 6.543-2.052 2.052 6.543-6.543 2.052zm-6.543 2.051 6.543-2.051 2.052 6.543-6.543 2.051zm2.052 6.543 6.543-2.051 2.051 6.543-6.543 2.051zm6.543-2.051 6.543-2.052 2.051 6.544-6.543 2.051zm-4.492 8.594 6.543-2.051 2.052 6.543-6.543 2.052zm48.954-44.093 6.543-2.052 2.052 6.543-6.543 2.052zm6.543-2.052 6.543-2.051 2.052 6.543-6.543 2.051zm-2.051-6.543 6.543-2.051 2.051 6.543-6.543 2.051zm8.594 4.492 6.543-2.052 2.052 6.543-6.543 2.052zm2.052 6.543 6.543-2.052 2.051 6.543-6.543 2.052zm6.543-2.052 6.543-2.051 2.051 6.543-6.543 2.051zm-13.086 4.103 6.543-2.051 2.051 6.543-6.543 2.051zm-6.543 2.052 6.543-2.052 2.051 6.543-6.543 2.052zm-6.544 2.051 6.544-2.051 2.051 6.543-6.543 2.051zm2.052 6.543 6.543-2.051 2.052 6.543-6.544 2.051zm-6.543 2.052 6.543-2.052 2.051 6.543-6.543 2.052zm13.086-4.103 6.543-2.052 2.052 6.543-6.543 2.052zm-4.492 8.594 6.544-2.051 2.051 6.543-6.543 2.051zm2.052 6.543 6.543-2.051 2.051 6.543-6.543 2.051zm2.051 6.543 6.543-2.051 2.052 6.543-6.543 2.052zm6.543-2.051 6.544-2.052 2.051 6.544-6.543 2.051zm6.544-2.052 6.543-2.051 2.051 6.543-6.543 2.052zm6.543-2.051 6.543-2.051 2.051 6.543-6.543 2.051zm6.543-2.051 6.543-2.052 2.051 6.543-6.543 2.052zm6.543-2.052 6.543-2.051 2.051 6.543-6.543 2.051zm-2.052-6.543 6.543-2.051 2.052 6.543-6.543 2.051zm-2.051-6.543 6.543-2.052 2.051 6.544-6.543 2.051zm-2.052-6.543 6.543-2.052 2.052 6.543-6.543 2.052zm-6.543 2.051 6.543-2.051 2.052 6.543-6.543 2.051zm-6.543 2.052 6.543-2.052 2.052 6.543-6.543 2.052zm8.595 4.491 6.543-2.051 2.051 6.543-6.543 2.051zm2.051 6.543 6.543-2.051 2.052 6.543-6.543 2.052zm4.103 13.087 6.543-2.052 2.052 6.543-6.543 2.052zm6.543-2.052 6.543-2.051 2.052 6.543-6.543 2.051zm2.052 6.543 6.543-2.051 2.051 6.543-6.543 2.051zm2.051 6.543 6.543-2.051 2.052 6.543-6.543 2.051zm-6.543 2.052 6.543-2.052 2.052 6.543-6.543 2.052zm-2.051-6.543 6.543-2.052 2.051 6.543-6.543 2.052zm-8.595-4.492 6.543-2.051 2.052 6.543-6.543 2.051zm-6.543 2.052 6.543-2.052 2.052 6.543-6.544 2.052zm-6.543 2.051 6.543-2.051 2.051 6.543-6.543 2.051zm-6.543 2.052 6.543-2.052 2.051 6.543-6.543 2.052zm2.051 6.543 6.543-2.052 2.052 6.543-6.543 2.052zm2.052 6.543 6.543-2.052 2.051 6.543-6.543 2.052zm-6.543 2.051 6.543-2.051 2.051 6.543-6.543 2.051zm-2.052-6.543 6.543-2.051 2.052 6.543-6.543 2.051zm-2.051-6.543 6.543-2.051 2.051 6.543-6.543 2.051zm-2.052-6.543 6.543-2.052 2.052 6.544-6.543 2.051zm-2.051-6.543 6.543-2.052 2.051 6.543-6.543 2.052zm-2.052-6.543 6.543-2.052 2.052 6.543-6.543 2.052zm87.047 8.639 6.543-2.051 2.051 6.543-6.543 2.051zm6.543-2.051 6.543-2.052 2.051 6.543-6.543 2.052zm-2.052-6.543 6.544-2.052 2.051 6.543-6.543 2.052zm-2.051-6.543 6.543-2.052 2.052 6.543-6.544 2.052zm-2.051-6.544 6.543-2.051 2.051 6.543-6.543 2.052zm-2.052-6.543 6.543-2.051 2.052 6.543-6.543 2.051zm-2.051-6.543 6.543-2.051 2.051 6.543-6.543 2.051zm-6.544 2.052 6.544-2.052 2.051 6.543-6.543 2.052zm2.052 6.543 6.543-2.052 2.052 6.543-6.544 2.052zm2.051 6.543 6.544-2.052 2.051 6.544-6.543 2.051zm2.052 6.543 6.543-2.051 2.051 6.543-6.543 2.051zm2.051 6.543 6.543-2.051 2.052 6.543-6.543 2.051zm-10.257-32.715 6.543-2.052 2.052 6.543-6.544 2.052zm6.543-2.052 6.543-2.051 2.052 6.543-6.543 2.051zm-2.051-6.543 6.543-2.051 2.051 6.543-6.543 2.051zm-2.052-6.543 6.543-2.051 2.052 6.543-6.543 2.051zm-2.051-6.543 6.543-2.052 2.051 6.544-6.543 2.051zm-6.543 2.051 6.543-2.051 2.051 6.543-6.543 2.052zm2.051 6.544 6.543-2.052 2.052 6.543-6.543 2.052zm2.052 6.543 6.543-2.052 2.051 6.543-6.543 2.052zm69.891-.355 6.543-2.051 2.052 6.543-6.544 2.051zm-2.051-6.543 6.543-2.051 2.051 6.543-6.543 2.051zm6.543-2.051 6.543-2.052 2.051 6.543-6.543 2.052zm2.051 6.543 6.543-2.052 2.052 6.543-6.543 2.052zm2.052 6.543 6.543-2.052 2.051 6.543-6.543 2.052zm-6.544 2.051 6.544-2.051 2.051 6.543-6.543 2.051zm-8.205-26.172 6.543-2.052 2.051 6.543-6.543 2.052zm2.051 6.543 6.543-2.052 2.052 6.544-6.543 2.051zm-4.492 8.594 6.544-2.051 2.051 6.543-6.543 2.052zm-2.051-6.543 6.543-2.051 2.052 6.543-6.544 2.051zm-2.051-6.543 6.543-2.051 2.051 6.543-6.543 2.051zm-17.19-8.983 6.543-2.051 2.052 6.543-6.543 2.051zm6.543-2.051 6.544-2.052 2.051 6.543-6.543 2.052zm6.544-2.052 6.543-2.051 2.051 6.543-6.543 2.051zm2.051 6.543 6.543-2.051 2.052 6.543-6.543 2.051zm-6.543 2.052 6.543-2.052 2.052 6.543-6.544 2.052zm-6.543 2.051 6.543-2.051 2.051 6.543-6.543 2.051zm2.051 6.543 6.543-2.051 2.052 6.543-6.543 2.051zm6.543-2.051 6.544-2.052 2.051 6.543-6.543 2.052zm2.052 6.543 6.543-2.052 2.051 6.543-6.543 2.052zm2.051 6.543 6.543-2.052 2.052 6.544-6.543 2.051zm-6.543 2.051 6.543-2.051 2.052 6.543-6.543 2.052zm-2.051-6.543 6.543-2.051 2.051 6.543-6.543 2.051zm4.103 13.087 6.543-2.052 2.051 6.543-6.543 2.052zm6.543-2.052 6.543-2.051 2.051 6.543-6.543 2.051zm2.051 6.543 6.543-2.051 2.052 6.543-6.543 2.051zm2.052 6.543 6.543-2.051 2.051 6.543-6.543 2.051zm2.051 6.543 6.543-2.051 2.052 6.543-6.543 2.051zm2.052 6.543 6.543-2.051 2.051 6.543-6.543 2.051zm-6.543 2.052 6.543-2.052 2.051 6.543-6.543 2.052zm-2.052-6.543 6.543-2.052 2.052 6.543-6.543 2.052zm-2.051-6.543 6.543-2.052 2.051 6.543-6.543 2.052zm-2.052-6.543 6.543-2.052 2.052 6.543-6.543 2.052zm28.224-1.663 6.543-2.052 2.052 6.543-6.543 2.052zm2.052 6.543 6.543-2.052 2.051 6.543-6.543 2.052zm4.491-8.595 6.543-2.051 2.052 6.543-6.543 2.051zm-2.051-6.543 6.543-2.051 2.051 6.543-6.543 2.051zm4.103 13.086 6.543-2.051 2.051 6.543-6.543 2.051zm2.051 6.543 6.543-2.051 2.052 6.543-6.543 2.052zm6.543-2.051 6.543-2.052 2.052 6.544-6.543 2.051zm6.543-2.052 6.543-2.051 2.052 6.543-6.543 2.052zm-2.051-6.543 6.543-2.051 2.051 6.543-6.543 2.051zm-2.052-6.543 6.543-2.051 2.052 6.543-6.543 2.051zm-6.543 2.052 6.543-2.052 2.052 6.543-6.543 2.052zm2.052 6.543 6.543-2.052 2.051 6.543-6.543 2.052zm-4.103-13.086 6.543-2.052 2.051 6.543-6.543 2.052zm4.491-8.595 6.543-2.051 2.052 6.543-6.543 2.051zm-2.051-6.543 6.543-2.051 2.051 6.543-6.543 2.051zm4.103 13.086 6.543-2.051 2.051 6.543-6.543 2.051zm-8.595-4.491 6.543-2.052 2.052 6.543-6.543 2.052zm-2.051-6.543 6.543-2.052 2.051 6.543-6.543 2.052zm-2.052-6.543 6.543-2.052 2.052 6.543-6.543 2.052zm6.543-2.052 6.543-2.051 2.052 6.543-6.543 2.051zm-2.051-6.543 6.543-2.052 2.051 6.544-6.543 2.051zm-10.646-11.035 6.543-2.051 2.051 6.543-6.543 2.051zm6.543-2.051 6.543-2.052 2.051 6.543-6.543 2.052zm2.051 6.543 6.543-2.052 2.052 6.543-6.543 2.052zm-6.543 2.051 6.543-2.051 2.052 6.543-6.543 2.051zm2.052 6.543 6.543-2.051 2.051 6.543-6.543 2.052zm56.788 3.754 6.543-2.051 2.052 6.543-6.543 2.051zm6.543-2.051 6.543-2.052 2.052 6.543-6.543 2.052zm6.543-2.052 6.543-2.051 2.052 6.543-6.543 2.051zm6.543-2.051 6.543-2.052 2.052 6.543-6.543 2.052zm-11.034 10.646 6.543-2.052 2.051 6.543-6.543 2.052zm-6.543 2.051 6.543-2.051 2.051 6.543-6.543 2.051zm13.086-4.103 6.543-2.051 2.051 6.543-6.543 2.051zm6.543-2.051 6.543-2.052 2.051 6.543-6.543 2.052zm8.594 4.491 6.543-2.051 2.052 6.543-6.543 2.052zm4.492-8.594 6.543-2.052 2.052 6.543-6.544 2.052zm-6.543 2.051 6.543-2.051 2.051 6.543-6.543 2.051zm8.594 4.492 6.544-2.052 2.051 6.544-6.543 2.051zm-4.491 8.595 6.543-2.052 2.051 6.543-6.543 2.052zm6.543-2.052 6.543-2.051 2.051 6.543-6.543 2.051zm2.051 6.543 6.543-2.051 2.052 6.543-6.543 2.051zm-6.543 2.052 6.543-2.052 2.052 6.543-6.543 2.052zm-26.172 8.206 6.543-2.052 2.052 6.543-6.543 2.052zm-6.543 2.051 6.543-2.051 2.052 6.543-6.544 2.051zm-2.052-6.543 6.544-2.052 2.051 6.544-6.543 2.051zm6.544-2.052 6.543-2.051 2.051 6.543-6.543 2.052zm-2.052-6.543 6.543-2.051 2.052 6.543-6.543 2.051zm-6.543 2.052 6.543-2.052 2.052 6.543-6.544 2.052zm-2.051-6.543 6.543-2.052 2.051 6.543-6.543 2.052zm-2.052-6.543 6.543-2.052 2.052 6.543-6.543 2.052zm-2.051-6.543 6.543-2.052 2.051 6.543-6.543 2.052zm6.543-2.052 6.543-2.051 2.051 6.543-6.543 2.051zm-14.749-24.121 6.543-2.051 2.051 6.543-6.543 2.051zm6.543-2.051 6.543-2.052 2.051 6.543-6.543 2.052zm6.543-2.052 6.543-2.051 2.051 6.543-6.543 2.051zm6.543-2.051 6.543-2.052 2.051 6.543-6.543 2.052zm6.543-2.052 6.543-2.051 2.052 6.543-6.544 2.051zm6.543-2.051 6.543-2.052 2.052 6.544-6.543 2.051zm2.052 6.543 6.543-2.051 2.051 6.543-6.543 2.051zm-6.544 2.051 6.544-2.051 2.051 6.543-6.543 2.052zm-6.543 2.052 6.543-2.052 2.052 6.544-6.543 2.051zm-6.543 2.051 6.543-2.051 2.052 6.543-6.543 2.051zm-6.543 2.052 6.543-2.052 2.052 6.543-6.543 2.052zm-6.543 2.051 6.543-2.051 2.052 6.543-6.543 2.051zm2.052 6.543 6.543-2.051 2.051 6.543-6.543 2.052zm2.051 6.544 6.543-2.052 2.052 6.543-6.543 2.052zm6.543-2.052 6.543-2.051 2.052 6.543-6.543 2.051zm-2.051-6.543 6.543-2.052 2.051 6.544-6.543 2.051zm26.172-8.206 6.543-2.051 2.052 6.543-6.544 2.051zm6.543-2.051 6.543-2.052 2.052 6.543-6.543 2.052zm-2.051-6.543 6.543-2.052 2.051 6.543-6.543 2.052zm4.103 13.086 6.543-2.052 2.051 6.543-6.543 2.052zm-6.544 2.051 6.544-2.051 2.051 6.543-6.543 2.051zm2.052 6.543 6.543-2.051 2.051 6.543-6.543 2.051zm6.543-2.051 6.543-2.052 2.052 6.543-6.544 2.052zm-4.492 8.594 6.543-2.051 2.052 6.543-6.543 2.051zm46.903-50.637 6.543-2.051 2.051 6.543-6.543 2.051zm-6.543 2.052 6.543-2.052 2.051 6.543-6.543 2.052zm2.051 6.543 6.543-2.052 2.052 6.543-6.543 2.052zm6.543-2.052 6.543-2.051 2.052 6.543-6.543 2.051zm6.543-2.051 6.544-2.052 2.051 6.544-6.543 2.051zm-2.051-6.543 6.543-2.052 2.052 6.543-6.544 2.052zm6.543-2.052 6.543-2.051 2.052 6.543-6.543 2.051zm6.543-2.051 6.543-2.052 2.052 6.543-6.543 2.052zm2.052 6.543 6.543-2.052 2.051 6.544-6.543 2.051zm-6.543 2.051 6.543-2.051 2.051 6.543-6.543 2.052zm2.051 6.544 6.543-2.052 2.052 6.543-6.543 2.052zm6.543-2.052 6.543-2.051 2.052 6.543-6.543 2.051zm4.492-8.595 6.543-2.051 2.051 6.543-6.543 2.052zm2.051 6.544 6.543-2.052 2.052 6.543-6.543 2.052zm2.052 6.543 6.543-2.052 2.051 6.543-6.543 2.052zm2.051 6.543 6.543-2.052 2.052 6.543-6.543 2.052zm2.052 6.543 6.543-2.052 2.051 6.543-6.543 2.052zm2.051 6.543 6.543-2.052 2.052 6.543-6.543 2.052zm2.052 6.543 6.543-2.052 2.051 6.544-6.543 2.051zm2.051 6.543 6.543-2.051 2.052 6.543-6.543 2.051zm-6.543 2.052 6.543-2.052 2.052 6.543-6.544 2.052zm-2.051-6.544 6.543-2.051 2.051 6.543-6.543 2.052zm-2.052-6.543 6.543-2.051 2.052 6.543-6.543 2.051zm-2.051-6.543 6.543-2.051 2.051 6.543-6.543 2.051zm-2.052-6.543 6.543-2.051 2.052 6.543-6.543 2.051zm-2.051-6.543 6.543-2.051 2.051 6.543-6.543 2.051zm1.662 28.224 6.544-2.052 2.051 6.544-6.543 2.051zm2.052 6.543 6.543-2.051 2.051 6.543-6.543 2.051zm8.594 4.492 6.544-2.052 2.051 6.543-6.543 2.052zm-6.543 2.051 6.543-2.051 2.052 6.543-6.543 2.051zm-6.543 2.052 6.543-2.052 2.052 6.543-6.543 2.052zm-2.051-6.544 6.543-2.051 2.051 6.543-6.543 2.052zm-4.492 8.595 6.543-2.051 2.052 6.543-6.543 2.051zm-6.543 2.051 6.543-2.051 2.052 6.543-6.543 2.052zm-2.051-6.543 6.543-2.051 2.051 6.543-6.543 2.051zm6.543-2.051 6.543-2.052 2.051 6.544-6.543 2.051zm-2.052-6.543 6.543-2.052 2.052 6.543-6.543 2.052zm-6.543 2.051 6.543-2.051 2.052 6.543-6.543 2.051zm-4.491 8.595 6.543-2.052 2.051 6.543-6.543 2.052zm-2.052-6.543 6.543-2.052 2.052 6.543-6.543 2.052zm-2.051-6.543 6.543-2.052 2.051 6.543-6.543 2.052zm-2.052-6.543 6.543-2.052 2.052 6.543-6.543 2.052zm-2.051-6.543 6.543-2.052 2.051 6.543-6.543 2.052zm-2.052-6.543 6.543-2.052 2.052 6.543-6.543 2.052zM542.758 237l6.543-2.051 2.051 6.543-6.543 2.052zm6.543-2.051 6.543-2.052 2.051 6.544-6.543 2.051zm-8.595-4.492 6.543-2.051 2.052 6.543-6.543 2.051zm15.138 2.44 6.543-2.051 2.051 6.543-6.543 2.052zm-4.492 8.595 6.543-2.051 2.052 6.543-6.543 2.051zm2.052 6.543 6.543-2.051 2.051 6.543-6.543 2.051zm2.051 6.543 6.543-2.051 2.052 6.543-6.543 2.051zm2.052 6.543 6.543-2.051 2.051 6.543-6.543 2.051zm57.937-61.283 6.543-2.051 2.051 6.543-6.543 2.051zm6.543-2.051 6.543-2.052 2.052 6.543-6.544 2.052zm6.543-2.052 6.543-2.051 2.052 6.543-6.543 2.051zm6.543-2.051 6.543-2.052 2.052 6.543-6.543 2.052zm6.543-2.052 6.543-2.051 2.052 6.543-6.543 2.051zm6.543-2.051 6.543-2.052 2.052 6.543-6.543 2.052zm2.052 6.543 6.543-2.052 2.051 6.544-6.543 2.051zm-6.543 2.051 6.543-2.051 2.051 6.543-6.543 2.052zm-6.543 2.052 6.543-2.052 2.051 6.544-6.543 2.051zm-6.543 2.051 6.543-2.051 2.051 6.543-6.543 2.051zm-6.544 2.052 6.544-2.052 2.051 6.543-6.543 2.052zm-6.543 2.051 6.543-2.051 2.052 6.543-6.543 2.051zm15.138 2.44 6.543-2.051 2.052 6.543-6.543 2.052zm2.052 6.544 6.543-2.052 2.051 6.543-6.543 2.052zm2.051 6.543 6.543-2.052 2.052 6.543-6.544 2.052zm2.051 6.543 6.544-2.052 2.051 6.543-6.543 2.052zm2.052 6.543 6.543-2.052 2.052 6.543-6.544 2.052zm2.051 6.543 6.544-2.052 2.051 6.543-6.543 2.052zm4.492-8.595 6.543-2.051 2.052 6.543-6.543 2.051zm-2.051-6.543 6.543-2.051 2.051 6.543-6.543 2.051zm-2.052-6.543 6.543-2.051 2.052 6.543-6.543 2.051zm-2.051-6.543 6.543-2.051 2.051 6.543-6.543 2.051zm-2.052-6.543 6.543-2.051 2.052 6.543-6.543 2.051zm10.258 32.715 6.543-2.051 2.051 6.543-6.543 2.051zm2.051 6.543 6.543-2.051 2.052 6.543-6.544 2.052zm2.051 6.544 6.544-2.052 2.051 6.543-6.543 2.052zm-6.543 2.051 6.543-2.051 2.052 6.543-6.543 2.051zm-2.051-6.543 6.543-2.052 2.051 6.544-6.543 2.051z" fill="#DF8508"/></svg>